<svg width="90" height="91" viewBox="0 0 90 91" fill="none" xmlns="http://www.w3.org/2000/svg">
<path d="M81.6918 52.8111V41.6876H78.9109C78.9109 42.504 78.925 43.3087 78.9062 44.1111C78.8803 45.261 78.4046 45.7811 77.2885 45.7974C75.5225 45.8254 73.7565 45.8184 71.9905 45.7974C71.0039 45.7858 70.4718 45.2516 70.4459 44.272C70.4247 43.458 70.4411 42.6416 70.4411 41.7296C69.1108 41.3961 68.9365 40.4025 69.0142 39.2222C69.0778 38.2543 69.0119 37.2793 69.0307 36.309C69.0542 35.1195 69.5487 34.625 70.7684 34.6227C75.3601 34.611 79.9493 34.597 84.5409 34.625C87.0204 34.6413 88.784 36.4536 88.7934 38.954C88.8099 43.5793 88.7793 48.2045 88.8241 52.8298C88.8288 53.4362 89.1655 54.0403 89.3468 54.6467C89.5776 55.4141 90.0438 56.2002 89.9967 56.9512C89.4127 66.253 87.3806 75.142 82.0591 83.035C79.5961 86.69 76.3749 89.3373 71.9175 90.2166C70.7331 90.4499 69.5087 90.5712 68.3008 90.5735C52.88 90.5968 37.4593 90.5502 22.0385 90.6085C15.3607 90.6341 10.6961 87.4737 7.27004 82.0554C3.73568 76.4645 1.84253 70.3045 0.761736 63.8646C0.403826 61.7257 0.156585 59.5589 0.0129504 57.3944C-0.170714 54.6164 1.61413 52.8251 4.41618 52.8111C7.00632 52.7971 9.59646 52.8018 12.1842 52.7948C12.2596 52.7948 12.3349 52.7575 12.4103 52.7365C13.1002 50.5463 13.8325 50.0098 16.1236 50.0098C19.9688 50.0098 23.814 50.0052 27.6591 50.0098C29.7571 50.0145 30.8662 51.0991 30.8686 53.161C30.8756 58.9921 30.8756 64.8209 30.8686 70.652C30.8662 72.7046 29.7477 73.7868 27.6427 73.7892C23.6797 73.7962 19.7168 73.7962 15.7539 73.7892C13.59 73.7845 12.5162 72.7093 12.5139 70.5494C12.5092 65.6186 12.5139 60.6878 12.5139 55.5984C10.5383 55.5984 8.63104 55.5984 6.72612 55.5984C5.90198 55.5984 5.07785 55.5704 4.25371 55.6077C3.33068 55.6497 2.74672 56.1325 2.82207 57.0842C3.55673 66.4163 5.49227 75.3659 11.4661 82.979C14.0209 86.2351 17.454 87.7816 21.5817 87.7839C36.8447 87.8002 52.11 87.7186 67.373 87.8282C72.8712 87.8679 76.9212 85.701 79.9093 81.2204C83.4813 75.8651 85.3391 69.9056 86.4152 63.6617C86.7567 61.6768 86.9709 59.6662 87.1522 57.6579C87.3029 55.9902 86.8697 55.5961 85.1602 55.5961C68.3267 55.5961 51.4931 55.5961 34.6596 55.5961C32.9783 55.5961 32.2814 55.1739 32.3002 54.1756C32.319 53.175 32.9689 52.8041 34.709 52.8041C49.8543 52.8041 65.0019 52.8041 80.1471 52.8041C80.6157 52.8041 81.0843 52.8041 81.6894 52.8041L81.6918 52.8111ZM15.3889 70.9203H27.9652V52.8671H15.3889V70.9203ZM85.9843 52.7598C85.9843 48.2582 85.9867 43.8405 85.9843 39.4252C85.9843 37.8764 85.5205 37.4146 83.9711 37.4123C80.2884 37.4076 76.6057 37.4099 72.9253 37.4123C72.5863 37.4123 72.2448 37.4496 71.8445 37.4752C71.8704 37.9674 71.8893 38.3686 71.9128 38.8164C75.2023 38.8164 78.374 38.8047 81.5434 38.8211C83.4013 38.8304 84.5339 39.964 84.5645 41.7996C84.5809 42.8469 84.5668 43.8941 84.5668 44.9414C84.5668 47.5304 84.5668 50.1218 84.5668 52.7598H85.9867H85.9843ZM76.0547 41.697H73.3209V42.9495H76.0547V41.697Z" fill="white"/>
<path d="M31.1648 32.9045H33.7264C33.3723 31.6266 32.9473 30.4233 32.7395 29.1815C32.6522 28.6545 32.8812 27.6751 33.2094 27.5451C34.1585 27.1721 34.0027 26.4958 34.0027 25.8028C34.0074 22.7056 35.2729 21.406 38.2878 21.4036C38.9182 21.4036 39.5462 21.3964 40.1766 21.4036C42.4172 21.4349 43.8715 22.8957 43.9116 25.1578C43.9211 25.7594 43.9116 26.3587 43.9116 26.9459C45.4534 27.9277 45.5147 28.0769 45.0449 29.8409C44.797 30.7675 44.5255 31.6868 44.2705 32.6109C44.2516 32.6831 44.28 32.7673 44.2941 32.955C45.8901 32.955 47.4956 32.9478 49.1011 32.955C50.5224 32.9646 50.9875 33.4435 50.9945 34.9067C51.004 36.43 50.9993 37.9558 50.9945 39.4791C50.9898 41.1733 50.5696 41.6065 48.9145 41.6065C36.0473 41.6065 23.18 41.6065 10.3127 41.6065C7.51968 41.6065 4.7243 41.6113 1.93127 41.6065C0.48872 41.6017 0.0165268 41.1276 0.0070829 39.6861C-0.00236097 38.0809 -0.00236097 36.4782 0.0070829 34.873C0.0165268 33.4315 0.488721 32.9646 1.93363 32.955C3.22272 32.9478 4.51181 32.955 5.83159 32.955C6.17629 30.1369 6.5328 27.444 6.82556 24.7439C7.05693 22.6069 7.73925 21.7838 9.86412 21.3314V18.5061C9.40374 18.5061 8.98112 18.5278 8.56323 18.5013C7.69439 18.4508 7.12776 17.9791 7.11596 17.0863C7.10179 16.1911 7.65898 15.6833 8.52545 15.64C9.42734 15.5942 10.3363 15.6039 11.2406 15.6351C12.2345 15.6712 12.7374 16.2488 12.7469 17.2523C12.7587 18.5735 12.7492 19.8947 12.7492 21.3218C15.0535 21.5552 15.7406 23.0738 15.9035 25.1939C16.1018 27.7424 16.5102 30.2717 16.8384 32.8804H18.4226C18.4226 30.6447 18.4203 28.4476 18.4226 26.2528C18.4274 23.9497 19.4922 22.8548 21.7327 22.8475C23.7797 22.8427 25.8243 22.8427 27.8712 22.8475C30.1165 22.8548 31.1601 23.9401 31.1648 26.2672C31.1695 28.462 31.1648 30.6568 31.1648 32.8996V32.9045ZM2.9276 35.9199V38.6705H48.1165V35.9199H2.9276ZM9.74844 24.3468C9.39665 27.2443 9.05431 30.0407 8.70961 32.8852H13.9722C13.6157 29.9998 13.271 27.201 12.9192 24.3468H9.74844ZM28.2844 30.1466H21.3432V32.8948H28.2844V30.1466ZM41.2131 32.9021C41.4751 31.9731 41.7325 31.0683 41.9945 30.1418H35.9221C36.1984 31.1068 36.4463 31.9804 36.7083 32.9021H41.2131ZM38.9418 24.2866C38.9418 24.2866 38.9418 24.2915 38.9418 24.2939C38.5097 24.2939 38.0494 24.2 37.6527 24.3227C37.3411 24.419 36.8972 24.7655 36.8783 25.0303C36.7437 26.7846 36.7272 27.3213 38.5027 27.1841C38.9324 27.1504 39.3691 27.1456 39.7988 27.1841C40.8943 27.2828 41.1021 26.6787 41.1092 25.7137C41.1163 24.7126 40.8306 24.1687 39.7658 24.2794C39.4943 24.3083 39.2157 24.2842 38.9418 24.2842V24.2866ZM21.2983 27.0999H28.2891V25.7907H21.2983V27.0999Z" fill="white"/>
<path d="M56.078 6.29555H51.8894V9.06736C52.2946 9.06736 52.7069 9.05561 53.1168 9.06971C54.0379 9.10259 54.6386 9.56769 54.6292 10.5002C54.6198 11.367 54.0449 11.8415 53.1757 11.8697C52.2734 11.8979 51.3688 11.9096 50.4665 11.8674C49.5383 11.8251 49.0295 11.2848 49.0177 10.3593C48.9965 8.55998 48.9918 6.7583 49.0177 4.95662C49.0342 3.89958 49.6585 3.42743 50.6903 3.42743C52.4524 3.42978 54.2169 3.42743 55.9555 3.42743C56.6551 1.15361 57.3901 0.608643 59.6988 0.608643C66.2549 0.608643 72.8111 0.608643 79.3672 0.608643C81.617 0.608643 82.3873 1.18415 83.0234 3.42743C84.703 3.42743 86.4204 3.41804 88.1354 3.42978C89.4994 3.43918 89.98 3.90898 89.9894 5.25025C90.0035 6.85461 90.0035 8.46132 89.9894 10.0657C89.9776 11.3976 89.4923 11.865 88.1213 11.8744C86.4392 11.8861 84.7572 11.8768 82.9268 11.8768C82.9268 12.37 82.9268 12.7858 82.9268 13.2016C82.9268 18.2519 82.9315 23.2999 82.9268 28.3502C82.9268 30.523 81.8478 31.6059 79.6782 31.6059C72.9642 31.6106 66.2526 31.6083 59.5386 31.6059C57.1075 31.6059 56.0827 30.5959 56.0803 28.2022C56.0803 21.3526 56.0803 14.5006 56.0803 7.65092V6.2932L56.078 6.29555ZM58.9827 3.47206V28.7026H80.0433V3.47206H58.9827ZM87.0729 9.03682V6.31669H83.0163V9.03682H87.0729Z" fill="white"/>
<path d="M76 41.6086V42.6086H73V41.6086H76Z" fill="white"/>
</svg>
