<svg width="95" height="87" viewBox="0 0 95 87" fill="none" xmlns="http://www.w3.org/2000/svg">
<path d="M11.8319 82.7096C11.8319 83.6322 11.8393 84.4771 11.8319 85.322C11.8197 86.3951 11.2715 86.9827 10.1776 86.99C7.85265 87.0021 5.52775 87.0045 3.20284 86.99C2.10891 86.9827 1.57051 86.3854 1.56317 85.3123C1.55582 84.465 1.56317 83.6176 1.56317 82.7169C0.317504 82.4086 0.0629881 81.5564 0.0727772 80.4177C0.114381 75.8047 0.0899081 71.1918 0.0899081 66.5812C0.0899081 63.8887 0.180457 63.7916 3.02663 63.6387C3.02663 62.7428 3.01685 61.8323 3.02663 60.9194C3.0609 58.2706 4.90369 56.4424 7.57611 56.406C8.47426 56.3939 9.36996 56.3866 10.2681 56.4109C11.1712 56.4351 11.7756 56.911 11.8001 57.8069C11.8246 58.7683 11.2103 59.2758 10.251 59.3049C9.35528 59.3316 8.45713 59.2928 7.55898 59.3219C6.6021 59.351 6.02454 59.8585 5.9707 60.8126C5.91931 61.7303 5.95847 62.6529 5.95847 63.6289H13.3027C13.3027 61.9173 13.3027 60.1959 13.3027 58.4746C13.3052 55.1654 15.0011 53.4926 18.3588 53.4926C21.457 53.4926 24.5577 53.5047 27.656 53.4877C29.4841 53.478 30.8521 54.2258 31.8482 55.7456C32.0464 56.0491 32.4967 56.3793 32.832 56.3793C43.0689 56.4109 53.3034 56.4012 63.5403 56.3963C63.6137 56.3963 63.6847 56.3526 63.8095 56.3113C63.5085 55.7044 63.1218 55.1289 62.931 54.4977C62.4904 53.0555 62.5516 51.6304 63.3421 50.2829C64.857 47.6996 66.5407 45.1917 67.8231 42.4967C69.6389 38.6801 74.2814 37.4831 77.3013 41.2876C79.9444 38.5199 81.3932 38.3013 85.2599 40.1441C85.2599 39.7459 85.2501 39.3915 85.2599 39.0346C85.3162 37.1967 86.4957 36.0458 88.3654 36.0119C89.222 35.9949 90.0785 35.9973 90.9351 36.0119C92.8611 36.0458 94.048 37.2137 94.0554 39.139C94.0725 43.5091 94.0602 47.8793 94.0602 52.2471C94.0602 61.6332 94.0505 71.0218 94.0725 80.408C94.0749 81.5272 93.8865 82.4304 92.5894 82.6902C92.5894 83.6055 92.5943 84.4528 92.5894 85.3002C92.5821 86.3684 92.0535 86.9778 90.9571 86.9875C88.6322 87.0045 86.3073 86.9997 83.9824 86.9875C82.8909 86.9827 82.3354 86.4073 82.3207 85.3293C82.3109 84.4844 82.3207 83.6395 82.3207 82.7072H11.8319V82.7096ZM48.5973 79.6505H91.0623V39.0054H88.1966C88.1966 39.5396 88.1966 39.9814 88.1966 40.4233C88.1966 47.9497 88.1966 55.4786 88.1966 63.005C88.1966 65.5688 87.1541 66.5934 84.5502 66.5934C73.048 66.5934 61.5434 66.5934 50.0412 66.5934C49.5688 66.5934 49.0965 66.5934 48.5997 66.5934V79.6481L48.5973 79.6505ZM3.10739 79.6286H45.5162V66.5982C43.2573 66.5982 41.0988 66.5982 38.9379 66.5982C36.777 66.5982 34.6429 66.5982 32.3914 66.5982C32.3914 69.0237 32.4012 71.3205 32.3914 73.6148C32.3768 76.4141 30.5438 78.2399 27.7245 78.2496C24.5455 78.2617 21.3665 78.2569 18.1875 78.2496C15.0941 78.2448 13.3174 76.4991 13.3101 73.457C13.3052 71.2063 13.3101 68.9533 13.3101 66.6492H3.10739V79.6286ZM29.4596 65.8674C29.4596 63.3619 29.4694 60.8539 29.4572 58.3483C29.4498 56.9037 28.9359 56.406 27.4602 56.4012C24.3644 56.3914 21.2661 56.389 18.1704 56.4012C16.7779 56.406 16.2443 56.9231 16.2419 58.2949C16.2321 63.3473 16.2321 68.4022 16.2419 73.4546C16.2443 74.8215 16.7779 75.3362 18.1777 75.341C21.2735 75.3531 24.3717 75.3507 27.4675 75.341C28.9383 75.3362 29.4523 74.8312 29.4596 73.3841C29.4719 70.8786 29.4621 68.3706 29.4621 65.865L29.4596 65.8674ZM85.1718 63.6411V59.4117H32.4624V63.6411H85.1742H85.1718ZM72.49 41.8533C72.1743 42.0913 71.4989 42.4579 71.0241 42.9969C70.5248 43.565 70.2165 44.2958 69.8323 44.9586C68.5303 47.1922 67.2063 49.4137 65.9436 51.6717C65.2681 52.8783 65.6083 54.1238 66.6655 54.7429C67.6738 55.3329 68.9243 55.1314 69.5582 54.0825C71.3789 51.0744 73.1703 48.0493 74.8565 44.9659C75.6323 43.548 74.487 41.8582 72.4924 41.8533H72.49ZM76.9514 55.0634C77.2573 54.8522 77.9083 54.5317 78.383 54.0413C78.8211 53.5872 79.0732 52.956 79.3962 52.3952C80.7936 49.9843 82.2155 47.5831 83.5737 45.1504C84.1929 44.0408 83.8845 42.8803 82.9496 42.2661C81.9609 41.6178 80.6296 41.7198 80.0202 42.7176C78.1481 45.7865 76.3004 48.8772 74.6069 52.0455C73.8629 53.4391 75.0278 55.0415 76.9514 55.0634ZM80.4999 56.3138H85.1497V48.3673C83.5174 51.1569 82.0295 53.6965 80.4999 56.3138ZM4.50968 84.0134H8.90253C8.88051 83.5181 8.86093 83.1005 8.8438 82.7193H4.50968V84.0134ZM85.3064 84.0207H89.5989V82.6999H85.3064V84.0207Z" fill="#000D28"/>
<path d="M46.1865 20.169C46.1865 21.5858 46.2009 22.8851 46.1817 24.1844C46.1625 25.4494 45.6654 25.9902 44.4455 25.9927C31.2065 26.0024 17.9675 26.0024 4.72855 25.9927C3.49423 25.9927 2.98753 25.4617 2.96832 24.2138C2.94671 22.8802 2.96352 21.5466 2.96352 20.125C2.48084 20.125 2.12783 20.1372 1.77722 20.125C0.61254 20.0736 0.105843 19.5793 0.0890326 18.3925C0.0650186 16.6381 0.0698214 14.8861 0.0866312 13.1317C0.10104 11.8299 0.614941 11.3381 1.94052 11.3234C3.17965 11.3112 4.41637 11.321 5.84521 11.321C5.84521 9.50535 5.92206 7.72889 5.8308 5.95977C5.61708 1.90034 6.72893 0.826148 10.6624 1.0219C12.7877 1.12712 14.9249 1.03169 17.055 1.04392C19.101 1.05616 20.2345 2.216 20.2465 4.31055C20.2585 6.58863 20.2489 8.86671 20.2489 11.2329H30.3444C30.3444 10.3153 30.3252 9.39279 30.3492 8.47031C30.3948 6.67917 31.5451 5.48018 33.2981 5.45571C35.6587 5.4239 38.0193 5.42145 40.3775 5.45571C42.1137 5.48018 43.2592 6.70119 43.3 8.49722C43.3216 9.38545 43.3048 10.2761 43.3048 11.321C44.652 11.321 45.9151 11.3112 47.1807 11.3234C48.5639 11.3356 49.0538 11.8275 49.0658 13.2247C49.0778 14.7736 49.0706 16.3225 49.0682 17.8713C49.0658 19.6967 48.6936 20.0858 46.9213 20.125C46.7244 20.1299 46.5299 20.147 46.1865 20.169ZM46.1361 14.338H3.01395V17.1936C3.49663 17.1936 3.92648 17.1936 4.35634 17.1936C11.3204 17.1936 18.2869 17.1936 25.251 17.1936C25.6112 17.1936 26.0819 17.0786 26.3052 17.2645C26.7567 17.6389 27.3642 18.1821 27.3618 18.6568C27.3618 19.1315 26.7543 19.6747 26.3028 20.0491C26.0795 20.2351 25.6088 20.1201 25.2486 20.1201C19.2451 20.1225 13.2391 20.1201 7.23563 20.1201C6.80577 20.1201 6.37832 20.1201 5.91005 20.1201V22.9756H43.2544V20.1201C42.7693 20.1201 42.3394 20.1201 41.9096 20.1201C38.2258 20.1201 34.5445 20.125 30.8607 20.1201C29.5783 20.1201 28.9083 19.6038 28.9083 18.6568C28.9083 17.705 29.5711 17.196 30.8631 17.196C35.2673 17.1911 39.6691 17.196 44.0732 17.196C44.7432 17.196 45.4132 17.196 46.1361 17.196V14.338ZM8.80134 4.0316V11.228H11.551V4.0316H8.80134ZM14.5695 4.02916V11.2255H17.3119V4.02916H14.5695ZM33.2741 11.2573H40.3559V8.46541H33.2741V11.2573Z" fill="#000D28"/>
<path d="M85.3466 20.2132C83.4858 20.2132 81.7606 20.2204 80.0379 20.2132C78.5695 20.206 78.0873 19.7295 78.0801 18.2809C78.0704 16.6398 78.0946 14.9963 78.0728 13.3552C78.0607 12.4384 78.412 11.8536 79.3206 11.548C79.6066 11.4518 79.9167 11.0812 79.9991 10.7804C80.7139 8.11899 81.385 5.44557 82.0538 2.77214C82.5553 0.753232 83.4712 0.0120835 85.5284 0.00486447C86.2141 0.00245815 86.8998 -0.00476083 87.5855 0.00486447C89.7734 0.0361467 91.2418 1.5786 90.6069 3.60713C90.0327 5.44075 90.5076 6.95433 91.1376 8.55695C91.3702 9.15131 91.5519 9.76733 91.7651 10.3689C91.988 10.9994 92.1746 11.5408 93.0469 11.7116C93.4612 11.7935 94.0064 12.6285 94.0161 13.1338C94.0985 16.8973 94.0718 20.6632 94.0524 24.4267C94.0476 25.4325 93.4661 25.9739 92.4508 25.9836C90.636 26.0004 88.8212 26.01 87.0064 25.9836C85.8627 25.9643 85.3684 25.4277 85.3491 24.2414C85.3297 22.9636 85.3442 21.6835 85.3442 20.2156L85.3466 20.2132ZM81.024 17.3328C82.8849 17.3328 84.6125 17.3232 86.3401 17.3352C87.7357 17.3448 88.2324 17.8285 88.2469 19.1929C88.2615 20.461 88.2494 21.7292 88.2494 23.0358H91.0891V14.515H81.0264V17.3328H81.024ZM82.8461 11.5552C83.6845 11.5552 84.4041 11.5985 85.1116 11.5312C85.349 11.5095 85.7052 11.2448 85.7634 11.0282C86.4685 8.36925 87.13 5.69823 87.8375 2.88764C87.0015 2.88764 86.2819 2.84433 85.572 2.91171C85.3345 2.93336 84.9783 3.19806 84.9202 3.41463C84.2151 6.07362 83.5536 8.74464 82.8437 11.5552H82.8461Z" fill="#000D28"/>
</svg>
