<svg width="90" height="90" viewBox="0 0 90 90" fill="none" xmlns="http://www.w3.org/2000/svg">
<path d="M81.6918 52.2025V41.079H78.9109C78.9109 41.8954 78.925 42.7001 78.9062 43.5024C78.8803 44.6523 78.4046 45.1725 77.2885 45.1888C75.5225 45.2168 73.7565 45.2098 71.9905 45.1888C71.0039 45.1771 70.4718 44.643 70.4459 43.6634C70.4247 42.8493 70.4411 42.033 70.4411 41.121C69.1108 40.7874 68.9365 39.7938 69.0142 38.6136C69.0778 37.6456 69.0119 36.6707 69.0307 35.7004C69.0542 34.5108 69.5487 34.0163 70.7684 34.014C75.3601 34.0023 79.9493 33.9884 84.5409 34.0163C87.0204 34.0327 88.784 35.845 88.7934 38.3454C88.8099 42.9706 88.7793 47.5959 88.8241 52.2211C88.8288 52.8276 89.1655 53.4317 89.3468 54.0381C89.5776 54.8055 90.0438 55.5915 89.9967 56.3426C89.4127 65.6444 87.3806 74.5334 82.0591 82.4264C79.5961 86.0813 76.3749 88.7287 71.9175 89.608C70.7331 89.8412 69.5087 89.9625 68.3008 89.9649C52.88 89.9882 37.4593 89.9415 22.0385 89.9998C15.3607 90.0255 10.6961 86.865 7.27004 81.4467C3.73568 75.8559 1.84253 69.6959 0.761736 63.256C0.403826 61.1171 0.156585 58.9503 0.0129504 56.7857C-0.170714 54.0078 1.61413 52.2165 4.41618 52.2025C7.00632 52.1885 9.59646 52.1931 12.1842 52.1861C12.2596 52.1861 12.3349 52.1488 12.4103 52.1278C13.1002 49.9377 13.8325 49.4012 16.1236 49.4012C19.9688 49.4012 23.814 49.3965 27.6591 49.4012C29.7571 49.4059 30.8662 50.4905 30.8686 52.5523C30.8756 58.3835 30.8756 64.2123 30.8686 70.0434C30.8662 72.0959 29.7477 73.1782 27.6427 73.1805C23.6797 73.1875 19.7168 73.1875 15.7539 73.1805C13.59 73.1759 12.5162 72.1006 12.5139 69.9408C12.5092 65.01 12.5139 60.0792 12.5139 54.9897C10.5383 54.9897 8.63104 54.9897 6.72612 54.9897C5.90198 54.9897 5.07785 54.9618 4.25371 54.9991C3.33068 55.0411 2.74672 55.5239 2.82207 56.4755C3.55673 65.8077 5.49227 74.7573 11.4661 82.3704C14.0209 85.6265 17.454 87.1729 21.5817 87.1752C36.8447 87.1916 52.11 87.1099 67.373 87.2196C72.8712 87.2592 76.9212 85.0924 79.9093 80.6117C83.4813 75.2564 85.3391 69.297 86.4152 63.053C86.7567 61.0681 86.9709 59.0575 87.1522 57.0493C87.3029 55.3816 86.8697 54.9874 85.1602 54.9874C68.3267 54.9874 51.4931 54.9874 34.6596 54.9874C32.9783 54.9874 32.2814 54.5652 32.3002 53.567C32.319 52.5663 32.9689 52.1955 34.709 52.1955C49.8543 52.1955 65.0019 52.1955 80.1471 52.1955C80.6157 52.1955 81.0843 52.1955 81.6894 52.1955L81.6918 52.2025ZM15.3889 70.3116H27.9652V52.2584H15.3889V70.3116ZM85.9843 52.1512C85.9843 47.6495 85.9867 43.2319 85.9843 38.8165C85.9843 37.2678 85.5205 36.806 83.9711 36.8036C80.2884 36.799 76.6057 36.8013 72.9253 36.8036C72.5863 36.8036 72.2448 36.8409 71.8445 36.8666C71.8704 37.3587 71.8893 37.7599 71.9128 38.2078C75.2023 38.2078 78.374 38.1961 81.5434 38.2124C83.4013 38.2218 84.5339 39.3553 84.5645 41.191C84.5809 42.2382 84.5668 43.2855 84.5668 44.3328C84.5668 46.9218 84.5668 49.5131 84.5668 52.1512H85.9867H85.9843ZM76.0547 41.0883H73.3209V42.3409H76.0547V41.0883Z" fill="#000D28"/>
<path d="M31.1648 32.2958H33.7264C33.3723 31.0179 32.9473 29.8147 32.7395 28.5729C32.6522 28.0459 32.8812 27.0664 33.2094 26.9365C34.1585 26.5634 34.0027 25.8872 34.0027 25.1941C34.0074 22.0969 35.2729 20.7974 38.2878 20.795C38.9182 20.795 39.5462 20.7878 40.1766 20.795C42.4172 20.8263 43.8715 22.287 43.9116 24.5492C43.9211 25.1508 43.9116 25.75 43.9116 26.3372C45.4534 27.3191 45.5147 27.4683 45.0449 29.2323C44.797 30.1588 44.5255 31.0781 44.2705 32.0022C44.2516 32.0744 44.28 32.1586 44.2941 32.3464C45.8901 32.3464 47.4956 32.3391 49.1011 32.3464C50.5224 32.356 50.9875 32.8349 50.9945 34.2981C51.004 35.8214 50.9993 37.3471 50.9945 38.8705C50.9898 40.5647 50.5696 40.9979 48.9145 40.9979C36.0473 40.9979 23.18 40.9979 10.3127 40.9979C7.51968 40.9979 4.7243 41.0027 1.93127 40.9979C0.48872 40.993 0.0165268 40.519 0.0070829 39.0774C-0.00236097 37.4723 -0.00236097 35.8695 0.0070829 34.2644C0.0165268 32.8228 0.488721 32.356 1.93363 32.3464C3.22272 32.3391 4.51181 32.3464 5.83159 32.3464C6.17629 29.5283 6.5328 26.8354 6.82556 24.1352C7.05693 21.9982 7.73925 21.1752 9.86412 20.7228V17.8975C9.40374 17.8975 8.98112 17.9192 8.56323 17.8927C7.69439 17.8421 7.12776 17.3705 7.11596 16.4776C7.10179 15.5824 7.65898 15.0746 8.52545 15.0313C9.42734 14.9856 10.3363 14.9952 11.2406 15.0265C12.2345 15.0626 12.7374 15.6402 12.7469 16.6437C12.7587 17.9649 12.7492 19.2861 12.7492 20.7132C15.0535 20.9466 15.7406 22.4651 15.9035 24.5853C16.1018 27.1338 16.5102 29.6631 16.8384 32.2718H18.4226C18.4226 30.0361 18.4203 27.8389 18.4226 25.6441C18.4274 23.3411 19.4922 22.2461 21.7327 22.2389C23.7797 22.2341 25.8243 22.2341 27.8712 22.2389C30.1165 22.2461 31.1601 23.3315 31.1648 25.6586C31.1695 27.8533 31.1648 30.0481 31.1648 32.291V32.2958ZM2.9276 35.3112V38.0619H48.1165V35.3112H2.9276ZM9.74844 23.7382C9.39665 26.6356 9.05431 29.432 8.70961 32.2766H13.9722C13.6157 29.3911 13.271 26.5923 12.9192 23.7382H9.74844ZM28.2844 29.5379H21.3432V32.2862H28.2844V29.5379ZM41.2131 32.2934C41.4751 31.3645 41.7325 30.4596 41.9945 29.5331H35.9221C36.1984 30.4981 36.4463 31.3717 36.7083 32.2934H41.2131ZM38.9418 23.678C38.9418 23.678 38.9418 23.6828 38.9418 23.6852C38.5097 23.6852 38.0494 23.5914 37.6527 23.7141C37.3411 23.8104 36.8972 24.1569 36.8783 24.4216C36.7437 26.176 36.7272 26.7127 38.5027 26.5755C38.9324 26.5418 39.3691 26.537 39.7988 26.5755C40.8943 26.6741 41.1021 26.0701 41.1092 25.1051C41.1163 24.104 40.8306 23.5601 39.7658 23.6708C39.4943 23.6997 39.2157 23.6756 38.9418 23.6756V23.678ZM21.2983 26.4912H28.2891V25.1821H21.2983V26.4912Z" fill="#000D28"/>
<path d="M56.078 5.68691H51.8894V8.45872C52.2946 8.45872 52.7069 8.44697 53.1168 8.46107C54.0379 8.49395 54.6386 8.95905 54.6292 9.8916C54.6198 10.7584 54.0449 11.2329 53.1757 11.2611C52.2734 11.2893 51.3688 11.301 50.4665 11.2587C49.5383 11.2164 49.0295 10.6762 49.0177 9.75066C48.9965 7.95133 48.9918 6.14966 49.0177 4.34798C49.0342 3.29094 49.6585 2.81879 50.6903 2.81879C52.4524 2.82114 54.2169 2.81879 55.9555 2.81879C56.6551 0.544966 57.3901 0 59.6988 0C66.2549 0 72.8111 0 79.3672 0C81.617 0 82.3873 0.575503 83.0234 2.81879C84.703 2.81879 86.4204 2.80939 88.1354 2.82114C89.4994 2.83053 89.98 3.30033 89.9894 4.64161C90.0035 6.24597 90.0035 7.85268 89.9894 9.45704C89.9776 10.7889 89.4923 11.2564 88.1213 11.2658C86.4392 11.2775 84.7572 11.2681 82.9268 11.2681C82.9268 11.7614 82.9268 12.1772 82.9268 12.5929C82.9268 17.6433 82.9315 22.6913 82.9268 27.7416C82.9268 29.9144 81.8478 30.9973 79.6782 30.9973C72.9642 31.002 66.2526 30.9996 59.5386 30.9973C57.1075 30.9973 56.0827 29.9872 56.0803 27.5936C56.0803 20.7439 56.0803 13.8919 56.0803 7.04227V5.68456L56.078 5.68691ZM58.9827 2.86342V28.0939H80.0433V2.86342H58.9827ZM87.0729 8.42818V5.70805H83.0163V8.42818H87.0729Z" fill="#000D28"/>
<path d="M76 41V42H73V41H76Z" fill="#000D28"/>
</svg>
