<svg width="94" height="88" viewBox="0 0 94 88" fill="none" xmlns="http://www.w3.org/2000/svg">
<path d="M11.7594 83.3183C11.7594 84.2409 11.7668 85.0858 11.7594 85.9307C11.7472 87.0038 11.199 87.5913 10.1051 87.5986C7.78014 87.6107 5.45524 87.6132 3.13033 87.5986C2.0364 87.5913 1.498 86.9941 1.49066 85.9209C1.48331 85.0736 1.49066 84.2263 1.49066 83.3255C0.244995 83.0172 -0.00952162 82.165 0.000267471 81.0263C0.0418711 76.4134 0.0173984 71.8004 0.0173984 67.1899C0.0173984 64.4974 0.107947 64.4003 2.95412 64.2473C2.95412 63.3514 2.94434 62.441 2.95412 61.5281C2.98839 58.8793 4.83118 57.0511 7.5036 57.0147C8.40175 57.0025 9.29745 56.9952 10.1956 57.0195C11.0986 57.0438 11.7031 57.5197 11.7276 58.4155C11.7521 59.377 11.1378 59.8844 10.1785 59.9135C9.28277 59.9402 8.38462 59.9014 7.48647 59.9305C6.52959 59.9597 5.95203 60.4671 5.89819 61.4212C5.8468 62.339 5.88596 63.2616 5.88596 64.2376H13.2302C13.2302 62.5259 13.2302 60.8046 13.2302 59.0832C13.2327 55.774 14.9286 54.1012 18.2863 54.1012C21.3845 54.1012 24.4852 54.1133 27.5835 54.0963C29.4116 54.0866 30.7796 54.8344 31.7756 56.3543C31.9739 56.6578 32.4242 56.9879 32.7594 56.9879C42.9964 57.0195 53.2309 57.0098 63.4678 57.0049C63.5412 57.0049 63.6122 56.9612 63.737 56.92C63.436 56.313 63.0493 55.7376 62.8584 55.1063C62.4179 53.6642 62.4791 52.239 63.2696 50.8915C64.7844 48.3083 66.4682 45.8003 67.7505 43.1054C69.5664 39.2887 74.2089 38.0918 77.2288 41.8963C79.8719 39.1285 81.3207 38.91 85.1874 40.7527C85.1874 40.3546 85.1776 40.0001 85.1874 39.6432C85.2436 37.8053 86.4232 36.6545 88.2929 36.6205C89.1495 36.6035 90.006 36.6059 90.8626 36.6205C92.7886 36.6545 93.9755 37.8223 93.9828 39.7476C94 44.1178 93.9877 48.488 93.9877 52.8557C93.9877 62.2419 93.978 71.6305 94 81.0166C94.0024 82.1359 93.814 83.0391 92.5169 83.2988C92.5169 84.2141 92.5218 85.0615 92.5169 85.9088C92.5096 86.9771 91.981 87.5865 90.8846 87.5962C88.5597 87.6132 86.2348 87.6083 83.9099 87.5962C82.8184 87.5913 82.2629 87.0159 82.2482 85.9379C82.2384 85.093 82.2482 84.2481 82.2482 83.3158H11.7594V83.3183ZM48.5248 80.2591H90.9898V39.6141H88.1241C88.1241 40.1482 88.1241 40.5901 88.1241 41.0319C88.1241 48.5584 88.1241 56.0872 88.1241 63.6136C88.1241 66.1775 87.0815 67.202 84.4776 67.202C72.9755 67.202 61.4708 67.202 49.9687 67.202C49.4963 67.202 49.024 67.202 48.5272 67.202V80.2567L48.5248 80.2591ZM3.03488 80.2373H45.4437V67.2069C43.1848 67.2069 41.0263 67.2069 38.8654 67.2069C36.7044 67.2069 34.5704 67.2069 32.3189 67.2069C32.3189 69.6323 32.3287 71.9291 32.3189 74.2234C32.3043 77.0228 30.4712 78.8485 27.652 78.8583C24.473 78.8704 21.294 78.8655 18.115 78.8583C15.0216 78.8534 13.2449 77.1078 13.2376 74.0656C13.2327 71.815 13.2376 69.5619 13.2376 67.2579H3.03488V80.2373ZM29.3871 66.4761C29.3871 63.9705 29.3969 61.4625 29.3847 58.957C29.3773 57.5124 28.8634 57.0147 27.3877 57.0098C24.2919 57.0001 21.1936 56.9977 18.0978 57.0098C16.7053 57.0147 16.1718 57.5318 16.1694 58.9035C16.1596 63.956 16.1596 69.0108 16.1694 74.0632C16.1718 75.4301 16.7053 75.9448 18.1052 75.9497C21.201 75.9618 24.2992 75.9594 27.395 75.9497C28.8658 75.9448 29.3798 75.4398 29.3871 73.9928C29.3993 71.4872 29.3896 68.9792 29.3896 66.4737L29.3871 66.4761ZM85.0993 64.2497V60.0204H32.3899V64.2497H85.1017H85.0993ZM72.4175 42.462C72.1018 42.6999 71.4263 43.0665 70.9516 43.6055C70.4523 44.1736 70.144 44.9044 69.7598 45.5672C68.4578 47.8009 67.1338 50.0224 65.871 52.2803C65.1956 53.4869 65.5358 54.7324 66.593 55.3516C67.6013 55.9415 68.8518 55.74 69.4857 54.6912C71.3064 51.683 73.0978 48.6579 74.784 45.5745C75.5598 44.1566 74.4145 42.4668 72.4199 42.462H72.4175ZM76.8789 55.672C77.1848 55.4608 77.8357 55.1403 78.3105 54.6499C78.7486 54.1959 79.0007 53.5646 79.3237 53.0038C80.7211 50.5929 82.1429 48.1918 83.5012 45.759C84.1203 44.6495 83.812 43.489 82.8771 42.8747C81.8884 42.2265 80.5571 42.3284 79.9477 43.3263C78.0756 46.3951 76.2279 49.4858 74.5344 52.6542C73.7904 54.0478 74.9553 55.6502 76.8789 55.672ZM80.4274 56.9224H85.0772V48.976C83.4449 51.7656 81.957 54.3051 80.4274 56.9224ZM4.43717 84.622H8.83002C8.808 84.1267 8.78842 83.7092 8.77129 83.328H4.43717V84.622ZM85.2338 84.6293H89.5264V83.3085H85.2338V84.6293Z" fill="white"/>
<path d="M46.114 20.7776C46.114 22.1944 46.1284 23.4937 46.1092 24.793C46.09 26.0581 45.5929 26.5989 44.3729 26.6013C31.134 26.6111 17.895 26.6111 4.65604 26.6013C3.42172 26.6013 2.91502 26.0703 2.89581 24.8224C2.8742 23.4888 2.89101 22.1553 2.89101 20.7336C2.40833 20.7336 2.05532 20.7458 1.70471 20.7336C0.54003 20.6822 0.0333327 20.1879 0.0165229 19.0012C-0.00749121 17.2467 -0.00268839 15.4948 0.0141215 13.7403C0.0285299 12.4386 0.542431 11.9467 1.86801 11.9321C3.10714 11.9198 4.34386 11.9296 5.7727 11.9296C5.7727 10.114 5.84955 8.33753 5.75829 6.56842C5.54457 2.50899 6.65642 1.43479 10.5899 1.63054C12.7152 1.73576 14.8524 1.64033 16.9825 1.65257C19.0285 1.6648 20.1619 2.82464 20.174 4.9192C20.186 7.19727 20.1764 9.47535 20.1764 11.8415H30.2719C30.2719 10.9239 30.2527 10.0014 30.2767 9.07895C30.3223 7.28781 31.4726 6.08882 33.2256 6.06435C35.5862 6.03254 37.9468 6.03009 40.305 6.06435C42.0412 6.08882 43.1867 7.30983 43.2275 9.10587C43.2491 9.99409 43.2323 10.8848 43.2323 11.9296C44.5795 11.9296 45.8426 11.9198 47.1082 11.9321C48.4914 11.9443 48.9813 12.4361 48.9933 13.8333C49.0053 15.3822 48.9981 16.9311 48.9957 18.48C48.9933 20.3054 48.621 20.6945 46.8488 20.7336C46.6519 20.7385 46.4574 20.7556 46.114 20.7776ZM46.0635 14.9466H2.94144V17.8022C3.42412 17.8022 3.85397 17.8022 4.28383 17.8022C11.2479 17.8022 18.2144 17.8022 25.1785 17.8022C25.5387 17.8022 26.0094 17.6872 26.2327 17.8732C26.6842 18.2475 27.2917 18.7908 27.2893 19.2655C27.2893 19.7402 26.6818 20.2834 26.2303 20.6577C26.007 20.8437 25.5363 20.7287 25.1761 20.7287C19.1726 20.7312 13.1666 20.7287 7.16312 20.7287C6.73326 20.7287 6.30581 20.7287 5.83754 20.7287V23.5843H43.1819V20.7287C42.6968 20.7287 42.2669 20.7287 41.8371 20.7287C38.1533 20.7287 34.4719 20.7336 30.7882 20.7287C29.5058 20.7287 28.8358 20.2124 28.8358 19.2655C28.8358 18.3136 29.4986 17.8046 30.7906 17.8046C35.1948 17.7997 39.5965 17.8046 44.0007 17.8046C44.6707 17.8046 45.3407 17.8046 46.0635 17.8046V14.9466ZM8.72883 4.64025V11.8366H11.4784V4.64025H8.72883ZM14.497 4.6378V11.8342H17.2394V4.6378H14.497ZM33.2016 11.866H40.2834V9.07406H33.2016V11.866Z" fill="white"/>
<path d="M85.2741 20.8218C83.4133 20.8218 81.6881 20.8291 79.9653 20.8218C78.497 20.8146 78.0148 20.3382 78.0076 18.8896C77.9979 17.2484 78.0221 15.6049 78.0003 13.9638C77.9882 13.047 78.3395 12.4623 79.2481 12.1567C79.534 12.0604 79.8442 11.6898 79.9266 11.389C80.6414 8.72764 81.3125 6.05421 81.9813 3.38078C82.4828 1.36187 83.3987 0.620726 85.4558 0.613507C86.1415 0.611101 86.8272 0.603882 87.513 0.613507C89.7009 0.644789 91.1693 2.18724 90.5344 4.21578C89.9602 6.0494 90.4351 7.56298 91.0651 9.16559C91.2977 9.75995 91.4794 10.376 91.6926 10.9776C91.9155 11.608 92.1021 12.1494 92.9744 12.3203C93.3887 12.4021 93.9339 13.2371 93.9436 13.7424C94.026 17.5059 93.9993 21.2718 93.9799 25.0353C93.9751 26.0412 93.3936 26.5826 92.3783 26.5922C90.5635 26.609 88.7487 26.6187 86.9339 26.5922C85.7902 26.573 85.2959 26.0363 85.2765 24.85C85.2572 23.5723 85.2717 22.2921 85.2717 20.8242L85.2741 20.8218ZM80.9515 17.9415C82.8124 17.9415 84.54 17.9318 86.2675 17.9439C87.6632 17.9535 88.1599 18.4372 88.1744 19.8016C88.189 21.0697 88.1769 22.3378 88.1769 23.6445H91.0166V15.1237H80.9539V17.9415H80.9515ZM82.7736 12.1639C83.6119 12.1639 84.3316 12.2072 85.0391 12.1398C85.2765 12.1182 85.6327 11.8535 85.6909 11.6369C86.396 8.9779 87.0574 6.30687 87.765 3.49629C86.929 3.49629 86.2094 3.45297 85.4995 3.52035C85.262 3.54201 84.9058 3.8067 84.8477 4.02327C84.1426 6.68226 83.4811 9.35328 82.7712 12.1639H82.7736Z" fill="white"/>
</svg>
