<svg width="90" height="90" viewBox="0 0 90 90" fill="none" xmlns="http://www.w3.org/2000/svg">
<path d="M2.6944 87.4121C5.0561 87.4121 7.38734 87.4121 9.71859 87.4121C10.3816 87.4121 11.047 87.4168 11.7101 87.4121C12.5395 87.4074 13.0854 87.774 13.1088 88.6332C13.1323 89.5462 12.5653 89.9664 11.6984 89.9874C10.6839 90.0108 9.66704 89.9944 8.65254 89.9944C6.77817 89.9944 4.90381 90.0038 3.0271 89.9921C1.12462 89.9781 0.00937183 88.9064 0.00702887 87.0455C-0.00234296 75.5605 -0.00234296 64.0731 0.00702887 52.5881C0.00702887 50.7319 1.11759 49.6462 3.02007 49.6205C4.85226 49.5948 6.68446 49.6158 8.65488 49.6158C8.67831 49.1419 8.7158 48.7333 8.71814 48.3223C8.72517 45.9081 8.70408 43.4939 8.72751 41.0797C8.74626 39.1138 9.80059 38.0677 11.771 38.0187C12.6309 37.9977 13.4907 37.9884 14.3483 38.0234C16.1195 38.0981 17.1551 39.1441 17.1762 40.9139C17.202 43.3281 17.1832 45.7423 17.1856 48.1566C17.1856 48.5792 17.1856 48.9994 17.1856 49.6135H18.7507C41.2478 49.6135 63.7472 49.6135 86.2442 49.6135C89.1589 49.6135 90 50.4564 90 53.3702C90 64.428 90 75.4858 90 86.5436C90 89.0582 89.0628 89.9944 86.5418 89.9944C63.6909 89.9944 40.8424 89.9944 17.9916 89.9944C17.7174 89.9944 17.4433 90.0038 17.1715 89.9898C16.3046 89.9454 15.7283 89.5205 15.7634 88.6239C15.7962 87.795 16.3398 87.4074 17.1809 87.4098C19.7207 87.4191 22.2581 87.4098 24.7979 87.4098C25.2219 87.4098 25.6437 87.4098 26.1544 87.4098V63.9307H2.6944V87.4121ZM63.8643 63.8863V87.3164H87.3267V63.8863H63.8643ZM28.8699 87.3211H61.0949V63.9284H28.8699V87.3211ZM28.9285 52.3406V61.1873H61.0739V52.3406H28.9261H28.9285ZM26.1919 52.3849H2.68737V61.1733H26.1896V52.3849H26.1919ZM87.3618 52.3476H63.8268V61.1639H87.3618V52.3476ZM11.5039 40.7154V49.5201H14.4467V40.7154H11.5039Z" fill="#000D28"/>
<path d="M45.0622 31.9949C40.9501 31.9949 36.8379 31.9996 32.7258 31.9949C30.1034 31.9926 29.2599 30.9693 29.0437 28.3828C28.8064 25.5251 29.5183 23.2263 31.6144 21.208C33.13 19.7486 34.3801 18.0038 35.6724 16.3251C36.0414 15.8441 36.321 15.1556 36.3304 14.5591C36.3891 10.8644 36.3562 7.16977 36.3609 3.47276C36.3633 1.05603 37.3972 0.0044536 39.7658 0.00209581C43.3304 0.00209581 46.895 -0.00261976 50.4573 0.00209581C52.5956 0.0044536 53.6906 1.10554 53.6977 3.28178C53.7094 7.05659 53.6742 10.8291 53.7282 14.6039C53.7353 15.1674 53.9844 15.8299 54.3392 16.2732C56.2731 18.6946 58.3056 21.0383 60.2301 23.4644C60.6319 23.9714 60.8692 24.707 60.9374 25.3648C61.0525 26.4541 60.975 27.5623 60.9679 28.6634C60.9491 30.8891 59.88 31.9784 57.6359 31.9902C53.4463 32.0091 49.2542 31.9949 45.0646 31.9949H45.0622ZM50.9249 14.585V2.68054H39.1525V14.5827H50.9249V14.585ZM33.3626 23.3159H56.696C55.0535 21.3424 53.5732 19.5222 52.034 17.7539C51.7967 17.4827 51.2939 17.3248 50.9108 17.3224C47.0008 17.2917 43.0907 17.2965 39.1807 17.313C38.8494 17.313 38.3935 17.3531 38.2102 17.5629C36.6053 19.4114 35.0474 21.3 33.3626 23.3135V23.3159ZM31.8446 29.2221H58.2163V26.1948H31.8446V29.2221Z" fill="#000D28"/>
<path d="M12.9843 22.9928C9.69937 22.9928 6.41208 22.9975 3.12714 22.9928C1.04825 22.9881 0.00645256 21.9734 0.00410617 19.9322C-0.000586596 14.303 -0.00293298 8.67392 0.00645256 3.04715C0.00879894 1.08798 1.09518 0.00761641 3.06145 0.0052729C9.67356 -0.00175763 16.2833 -0.00175763 22.8954 0.0052729C24.8242 0.0052729 25.9528 1.01064 25.9669 2.92295C26.0091 8.66689 26.0138 14.4132 25.9645 20.1595C25.9481 22.0273 24.8406 22.9881 22.9611 22.9951C19.6363 23.0045 16.3115 22.9975 12.9867 22.9975L12.9843 22.9928ZM23.2755 2.67688H2.65787V20.3048H23.2755V2.67688Z" fill="#000D28"/>
<path d="M66.6801 2.65998C66.6801 3.7099 66.7012 4.67781 66.6731 5.64571C66.6496 6.49643 66.3916 7.24638 65.3711 7.2581C64.3578 7.26982 64.0575 6.54331 64.0294 5.68555C63.9989 4.74812 63.9824 3.80834 64.0294 2.87324C64.1232 1.02884 65.1929 0.00937436 67.039 0.00703077C73.687 -0.00234359 80.335 -0.00234359 86.983 0.00703077C88.8737 0.00937436 89.9856 1.10617 89.9903 2.98105C90.002 8.68769 90.0044 14.392 89.9903 20.0986C89.9856 21.929 88.9018 22.9906 87.0581 22.993C80.3702 23.0023 73.6823 23.0023 66.9968 22.993C65.1858 22.993 64.088 22.0298 64.0434 20.2299C63.9731 17.3402 64.0153 14.4459 64.0247 11.5539C64.027 10.6704 64.3812 9.9626 65.3547 9.96026C66.3329 9.96026 66.6731 10.6751 66.6777 11.5562C66.6895 13.9795 66.6824 16.4028 66.6848 18.8261C66.6848 19.2924 66.6848 19.7588 66.6848 20.3166H87.3137V2.65998H66.6801Z" fill="#000D28"/>
<path d="M81.5368 34.655H72.4882C72.4882 35.6112 72.4341 36.5192 72.5188 37.4157C72.5471 37.7007 72.893 38.034 73.1801 38.2087C74.9192 39.273 75.7617 41.0706 75.2746 42.7877C74.7121 44.7714 73.053 46.0426 71.0809 45.9989C69.1983 45.9575 67.5651 44.7415 67.0662 43.0106C66.5178 41.1027 67.3203 39.296 69.1183 38.1949C69.436 37.9995 69.7278 37.549 69.7725 37.1858C69.8713 36.3951 69.8031 35.5836 69.8031 34.5952C68.424 34.5952 67.1109 34.6021 65.7954 34.5952C64.6022 34.586 63.9386 34.1125 64.0045 33.2597C64.0845 32.2299 64.7905 31.9977 65.7365 32C73.2225 32.0161 80.7107 32.0069 88.1967 32.0115C89.3922 32.0115 90.0817 32.4988 89.9922 33.3241C89.8746 34.3998 89.0956 34.6274 88.1261 34.6067C86.8435 34.5768 85.5586 34.5998 84.1419 34.5998C84.1419 35.6227 84.0878 36.5353 84.1748 37.4341C84.2007 37.7099 84.5631 38.0294 84.8502 38.1949C86.7023 39.2615 87.5024 41.2407 86.8435 43.2244C86.2693 44.9507 84.4149 46.1391 82.5534 45.9759C80.433 45.7897 78.9175 44.4128 78.6469 42.3394C78.4304 40.666 79.0564 39.2362 80.546 38.4455C81.4756 37.9513 81.5979 37.3766 81.5391 36.533C81.4991 35.933 81.5321 35.3285 81.5321 34.655H81.5368ZM82.8052 40.3212C81.9298 40.3396 81.2708 40.997 81.2732 41.8567C81.2732 42.7624 81.9957 43.4244 82.9323 43.3784C83.8124 43.3348 84.4384 42.6589 84.4031 41.79C84.3678 40.9211 83.6971 40.3028 82.8052 40.3212ZM72.7283 41.905C72.7541 41.0775 72.0717 40.358 71.2245 40.3235C70.309 40.2867 69.5419 40.9855 69.5442 41.859C69.5442 42.6842 70.2549 43.3692 71.1186 43.383C71.994 43.3968 72.7 42.7486 72.7283 41.9073V41.905Z" fill="#000D28"/>
<path d="M8.99531 76.0124C8.99531 76.9024 9.00886 77.7946 8.9899 78.6846C8.97364 79.4584 8.52939 79.9817 7.54337 79.9995C6.49233 80.0174 6.00474 79.5031 6.00203 78.66C5.99932 76.88 5.99932 75.0977 6.00203 73.3177C6.00203 72.5261 6.46796 72.0184 7.43772 72.0006C8.47792 71.9804 8.97635 72.5082 8.9899 73.3445C9.00344 74.2346 8.99261 75.1246 8.99261 76.0168L8.99531 76.0124Z" fill="#000D28"/>
<path d="M76.9336 16.957C76.3691 16.957 75.7209 17.0708 75.2609 16.9281C74.7251 16.7617 73.9671 16.3507 74.0011 16.0841C74.0455 15.7258 74.6885 15.1807 75.2008 15.1127C76.3273 14.9633 77.5609 14.9633 78.69 15.1076C79.2127 15.1739 79.8479 15.6833 79.9707 16.0569C80.1484 16.5902 79.495 16.9281 78.6273 16.9604C78.0653 16.9808 77.4982 16.9638 76.9336 16.9638C76.9336 16.9638 76.9336 16.9604 76.9336 16.9587V16.957Z" fill="#000D28"/>
<path d="M67.002 75.9295C67.002 75.0762 67.0092 74.225 67.0002 73.3717C66.9912 72.5228 67.3086 71.9978 68.0011 72C68.6395 72.0022 68.9822 72.5138 68.9876 73.2935C69.002 75.1097 69.0074 76.9259 68.984 78.7421C68.9732 79.515 68.6251 80.011 67.9741 79.9998C67.323 79.9886 67.0056 79.5083 67.0038 78.7108C67.0002 77.7837 67.0038 76.8566 67.0038 75.9318L67.002 75.9295Z" fill="#000D28"/>
<path d="M45.0023 83.9965C41.6725 83.9965 38.3449 84.0035 35.015 83.9942C33.081 83.9872 32.0235 82.9695 32.0141 81.0736C31.9953 77.3561 31.9953 73.6363 32.0141 69.9188C32.0235 68.0089 33.0645 67.0076 35.0103 67.0052C41.6678 66.9983 48.3252 66.9983 54.985 67.0052C56.9355 67.0052 57.9765 68.0043 57.9859 69.9142C58.0047 73.6317 58.0047 77.3515 57.9859 81.069C57.9765 82.9695 56.9214 83.9872 54.9897 83.9942C51.6598 84.0058 48.3322 83.9965 45.0023 83.9965ZM55.3069 69.6609H34.7307V81.3292H55.3069V69.6609Z" fill="#000D28"/>
<path d="M44.9978 58C44.3679 57.7955 43.7335 57.7197 43.3489 57.4341C42.8113 57.0357 42.9192 56.2883 43.5063 56.1578C44.4331 55.9516 45.5376 55.9481 46.4689 56.1437C47.0695 56.2707 47.1955 57.0163 46.6669 57.413C46.262 57.7162 45.5916 57.8026 44.9978 58Z" fill="#000D28"/>
<path d="M33.9988 57.988C33.6906 57.988 33.3754 58.0183 33.0764 57.9827C32.3 57.8884 31.9176 57.4987 32.0149 56.9168C32.1493 56.1214 32.9165 55.9915 33.8064 56.0004C34.7497 56.0093 35.751 55.9381 35.9758 56.899C36.145 57.6232 35.4219 58.0094 33.9988 57.9898V57.988Z" fill="#000D28"/>
<path d="M56.0291 57.9869C55.7199 57.9869 55.4038 58.0206 55.1039 57.9798C54.3484 57.8787 53.9533 57.5131 54.0044 56.924C54.0625 56.2249 54.7483 55.98 56.3825 56.0013C57.2681 56.0137 57.9143 56.2373 57.9934 56.9737C58.0724 57.6888 57.4448 58.0029 56.0291 57.9869Z" fill="#000D28"/>
<path d="M14.4891 57.9583C14.0122 57.9583 13.469 58.0692 13.076 57.9293C12.6211 57.7656 11.9764 57.3649 12.0007 57.0971C12.0316 56.7373 12.5659 56.1712 12.9854 56.1098C13.9769 55.9631 15.0522 55.9631 16.0414 56.1115C16.4565 56.1746 16.9754 56.7544 16.9997 57.1159C17.0173 57.3819 16.3593 57.7707 15.9023 57.9293C15.5048 58.0675 14.9661 57.9583 14.4891 57.9583Z" fill="#000D28"/>
<path d="M75.5586 56.0123C75.9853 56.0123 76.4184 55.9804 76.8409 56.0193C77.5721 56.0865 78.0267 56.4259 77.9988 57.0623C77.9731 57.658 77.5378 57.9708 76.828 57.9867C75.9381 58.0044 75.0461 58.0044 74.1562 57.9867C73.4422 57.9708 73.0176 57.6474 73.0005 57.0534C72.9833 56.4188 73.4358 56.0794 74.1712 56.0193C74.6301 55.9822 75.0976 56.0123 75.5607 56.0123H75.5586Z" fill="#000D28"/>
<path d="M13.5501 15.0147C13.976 15.0147 14.4084 14.9813 14.8301 15.0218C15.5536 15.0921 16.0267 15.4158 15.9988 16.0525C15.9731 16.6401 15.5322 16.962 14.8323 16.9813C13.9439 17.0077 13.0535 17.0042 12.1652 16.9831C11.4567 16.9672 11.0221 16.6453 11.0007 16.0561C10.9793 15.4263 11.431 15.0833 12.163 15.02C12.6211 14.9795 13.0877 15.013 13.5501 15.013V15.0147Z" fill="#000D28"/>
<path d="M45.0036 74.9946C43.2322 74.9946 41.4631 74.984 39.6917 74.9981C38.7643 75.0051 38.0359 74.7776 38.0012 74.007C37.9665 73.2117 38.6926 72.9965 39.6292 73C43.2091 73.0124 46.7866 73.0124 50.3664 73C51.3007 72.9965 52.0292 73.2081 51.9991 74.0052C51.969 74.7776 51.2406 75.0069 50.3132 74.9998C48.5441 74.9857 46.7727 74.9963 45.0013 74.9963L45.0036 74.9946Z" fill="#000D28"/>
</svg>
