<svg width="90" height="91" viewBox="0 0 90 91" fill="none" xmlns="http://www.w3.org/2000/svg">
<path d="M2.6944 88.0208C5.0561 88.0208 7.38734 88.0208 9.71859 88.0208C10.3816 88.0208 11.047 88.0254 11.7101 88.0208C12.5395 88.0161 13.0854 88.3827 13.1088 89.2419C13.1323 90.1548 12.5653 90.5751 11.6984 90.5961C10.6839 90.6194 9.66704 90.6031 8.65254 90.6031C6.77817 90.6031 4.90381 90.6124 3.0271 90.6007C1.12462 90.5867 0.00937183 89.515 0.00702887 87.6542C-0.00234296 76.1691 -0.00234296 64.6818 0.00702887 53.1967C0.00702887 51.3405 1.11759 50.2548 3.02007 50.2291C4.85226 50.2035 6.68446 50.2245 8.65488 50.2245C8.67831 49.7505 8.7158 49.3419 8.71814 48.931C8.72517 46.5168 8.70408 44.1025 8.72751 41.6883C8.74626 39.7224 9.80059 38.6764 11.771 38.6274C12.6309 38.6063 13.4907 38.597 14.3483 38.632C16.1195 38.7067 17.1551 39.7528 17.1762 41.5226C17.202 43.9368 17.1832 46.351 17.1856 48.7652C17.1856 49.1878 17.1856 49.6081 17.1856 50.2221H18.7507C41.2478 50.2221 63.7472 50.2221 86.2442 50.2221C89.1589 50.2221 90 51.065 90 53.9789C90 65.0367 90 76.0944 90 87.1522C90 89.6668 89.0628 90.6031 86.5418 90.6031C63.6909 90.6031 40.8424 90.6031 17.9916 90.6031C17.7174 90.6031 17.4433 90.6124 17.1715 90.5984C16.3046 90.554 15.7283 90.1291 15.7634 89.2325C15.7962 88.4037 16.3398 88.0161 17.1809 88.0184C19.7207 88.0278 22.2581 88.0184 24.7979 88.0184C25.2219 88.0184 25.6437 88.0184 26.1544 88.0184V64.5393H2.6944V88.0208ZM63.8643 64.495V87.925H87.3267V64.495H63.8643ZM28.8699 87.9297H61.0949V64.537H28.8699V87.9297ZM28.9285 52.9492V61.7959H61.0739V52.9492H28.9261H28.9285ZM26.1919 52.9936H2.68737V61.7819H26.1896V52.9936H26.1919ZM87.3618 52.9562H63.8268V61.7726H87.3618V52.9562ZM11.5039 41.3241V50.1287H14.4467V41.3241H11.5039Z" fill="white"/>
<path d="M45.0622 32.6036C40.9501 32.6036 36.8379 32.6083 32.7258 32.6036C30.1034 32.6012 29.2599 31.5779 29.0437 28.9914C28.8064 26.1338 29.5183 23.8349 31.6144 21.8167C33.13 20.3572 34.3801 18.6124 35.6724 16.9337C36.0414 16.4527 36.321 15.7642 36.3304 15.1677C36.3891 11.4731 36.3562 7.77841 36.3609 4.0814C36.3633 1.66467 37.3972 0.613096 39.7658 0.610738C43.3304 0.610738 46.895 0.606023 50.4573 0.610738C52.5956 0.613096 53.6906 1.71418 53.6977 3.89042C53.7094 7.66524 53.6742 11.4377 53.7282 15.2125C53.7353 15.776 53.9844 16.4386 54.3392 16.8818C56.2731 19.3033 58.3056 21.6469 60.2301 24.0731C60.6319 24.58 60.8692 25.3156 60.9374 25.9735C61.0525 27.0627 60.975 28.1709 60.9679 29.272C60.9491 31.4977 59.88 32.587 57.6359 32.5988C53.4463 32.6177 49.2542 32.6036 45.0646 32.6036H45.0622ZM50.9249 15.1937V3.28918H39.1525V15.1913H50.9249V15.1937ZM33.3626 23.9245H56.696C55.0535 21.9511 53.5732 20.1309 52.034 18.3625C51.7967 18.0914 51.2939 17.9334 50.9108 17.931C47.0008 17.9004 43.0907 17.9051 39.1807 17.9216C38.8494 17.9216 38.3935 17.9617 38.2102 18.1715C36.6053 20.02 35.0474 21.9086 33.3626 23.9222V23.9245ZM31.8446 29.8308H58.2163V26.8034H31.8446V29.8308Z" fill="white"/>
<path d="M12.9843 23.6014C9.69937 23.6014 6.41208 23.6061 3.12714 23.6014C1.04825 23.5967 0.00645256 22.582 0.00410617 20.5408C-0.000586596 14.9117 -0.00293298 9.28257 0.00645256 3.65579C0.00879894 1.69662 1.09518 0.616259 3.06145 0.613915C9.67356 0.606885 16.2833 0.606885 22.8954 0.613915C24.8242 0.613915 25.9528 1.61928 25.9669 3.53159C26.0091 9.27554 26.0138 15.0218 25.9645 20.7681C25.9481 22.6359 24.8406 23.5967 22.9611 23.6038C19.6363 23.6131 16.3115 23.6061 12.9867 23.6061L12.9843 23.6014ZM23.2755 3.28552H2.65787V20.9134H23.2755V3.28552Z" fill="white"/>
<path d="M66.6801 3.26862C66.6801 4.31855 66.7012 5.28645 66.6731 6.25435C66.6496 7.10508 66.3916 7.85503 65.3711 7.86674C64.3578 7.87846 64.0575 7.15195 64.0294 6.29419C63.9989 5.35676 63.9824 4.41698 64.0294 3.48188C64.1232 1.63748 65.1929 0.618017 67.039 0.615673C73.687 0.606299 80.335 0.606299 86.983 0.615673C88.8737 0.618017 89.9856 1.71482 89.9903 3.58969C90.002 9.29633 90.0044 15.0006 89.9903 20.7073C89.9856 22.5376 88.9018 23.5993 87.0581 23.6016C80.3702 23.611 73.6823 23.611 66.9968 23.6016C65.1858 23.6016 64.088 22.6384 64.0434 20.8385C63.9731 17.9489 64.0153 15.0545 64.0247 12.1625C64.027 11.279 64.3812 10.5712 65.3547 10.5689C66.3329 10.5689 66.6731 11.2837 66.6777 12.1649C66.6895 14.5882 66.6824 17.0114 66.6848 19.4347C66.6848 19.9011 66.6848 20.3675 66.6848 20.9252H87.3137V3.26862H66.6801Z" fill="white"/>
<path d="M81.5368 35.2636H72.4882C72.4882 36.2199 72.4341 37.1278 72.5188 38.0243C72.5471 38.3094 72.893 38.6427 73.1801 38.8174C74.9192 39.8816 75.7617 41.6792 75.2746 43.3963C74.7121 45.3801 73.053 46.6512 71.0809 46.6076C69.1983 46.5662 67.5651 45.3502 67.0662 43.6193C66.5178 41.7114 67.3203 39.9046 69.1183 38.8036C69.436 38.6082 69.7278 38.1576 69.7725 37.7945C69.8713 37.0037 69.8031 36.1923 69.8031 35.2039C68.424 35.2039 67.1109 35.2108 65.7954 35.2039C64.6022 35.1947 63.9386 34.7211 64.0045 33.8683C64.0845 32.8385 64.7905 32.6064 65.7365 32.6087C73.2225 32.6247 80.7107 32.6156 88.1967 32.6202C89.3922 32.6202 90.0817 33.1075 89.9922 33.9327C89.8746 35.0085 89.0956 35.236 88.1261 35.2153C86.8435 35.1855 85.5586 35.2085 84.1419 35.2085C84.1419 36.2314 84.0878 37.1439 84.1748 38.0427C84.2007 38.3186 84.5631 38.6381 84.8502 38.8036C86.7023 39.8702 87.5024 41.8493 86.8435 43.8331C86.2693 45.5594 84.4149 46.7478 82.5534 46.5846C80.433 46.3984 78.9175 45.0215 78.6469 42.9481C78.4304 41.2746 79.0564 39.8449 80.546 39.0541C81.4756 38.5599 81.5979 37.9852 81.5391 37.1416C81.4991 36.5417 81.5321 35.9371 81.5321 35.2636H81.5368ZM82.8052 40.9298C81.9298 40.9482 81.2708 41.6056 81.2732 42.4654C81.2732 43.371 81.9957 44.033 82.9323 43.9871C83.8124 43.9434 84.4384 43.2676 84.4031 42.3987C84.3678 41.5298 83.6971 40.9114 82.8052 40.9298ZM72.7283 42.5136C72.7541 41.6861 72.0717 40.9666 71.2245 40.9321C70.309 40.8954 69.5419 41.5942 69.5442 42.4676C69.5442 43.2929 70.2549 43.9779 71.1186 43.9917C71.994 44.0055 72.7 43.3572 72.7283 42.5159V42.5136Z" fill="white"/>
<path d="M8.99531 76.621C8.99531 77.511 9.00886 78.4033 8.9899 79.2933C8.97364 80.067 8.52939 80.5903 7.54337 80.6082C6.49233 80.6261 6.00474 80.1117 6.00203 79.2687C5.99932 77.4886 5.99932 75.7064 6.00203 73.9263C6.00203 73.1347 6.46796 72.6271 7.43772 72.6092C8.47792 72.5891 8.97635 73.1168 8.9899 73.9532C9.00344 74.8432 8.99261 75.7332 8.99261 76.6255L8.99531 76.621Z" fill="white"/>
<path d="M76.9336 17.5657C76.3691 17.5657 75.7209 17.6794 75.2609 17.5368C74.7251 17.3704 73.9671 16.9594 74.0011 16.6928C74.0455 16.3344 74.6885 15.7893 75.2008 15.7214C76.3273 15.5719 77.5609 15.5719 78.69 15.7163C79.2127 15.7825 79.8479 16.292 79.9707 16.6656C80.1484 17.1988 79.495 17.5368 78.6273 17.569C78.0653 17.5894 77.4982 17.5724 76.9336 17.5724C76.9336 17.5724 76.9336 17.569 76.9336 17.5674V17.5657Z" fill="white"/>
<path d="M67.002 76.5382C67.002 75.6848 67.0092 74.8337 67.0002 73.9803C66.9912 73.1314 67.3086 72.6064 68.0011 72.6087C68.6395 72.6109 68.9822 73.1225 68.9876 73.9021C69.002 75.7183 69.0074 77.5345 68.984 79.3507C68.9732 80.1237 68.6251 80.6196 67.9741 80.6085C67.323 80.5973 67.0056 80.117 67.0038 79.3195C67.0002 78.3924 67.0038 77.4653 67.0038 76.5404L67.002 76.5382Z" fill="white"/>
<path d="M45.0023 84.6051C41.6725 84.6051 38.3449 84.6121 35.015 84.6028C33.081 84.5958 32.0235 83.5782 32.0141 81.6822C31.9953 77.9648 31.9953 74.2449 32.0141 70.5275C32.0235 68.6176 33.0645 67.6162 35.0103 67.6139C41.6678 67.6069 48.3252 67.6069 54.985 67.6139C56.9355 67.6139 57.9765 68.6129 57.9859 70.5228C58.0047 74.2403 58.0047 77.9601 57.9859 81.6776C57.9765 83.5782 56.9214 84.5958 54.9897 84.6028C51.6598 84.6144 48.3322 84.6051 45.0023 84.6051ZM55.3069 70.2696H34.7307V81.9378H55.3069V70.2696Z" fill="white"/>
<path d="M44.9978 58.6086C44.3679 58.4042 43.7335 58.3284 43.3489 58.0428C42.8113 57.6444 42.9192 56.8969 43.5063 56.7665C44.4331 56.5602 45.5376 56.5567 46.4689 56.7524C47.0695 56.8793 47.1955 57.625 46.6669 58.0216C46.262 58.3248 45.5916 58.4112 44.9978 58.6086Z" fill="white"/>
<path d="M33.9988 58.5966C33.6906 58.5966 33.3754 58.6269 33.0764 58.5913C32.3 58.497 31.9176 58.1073 32.0149 57.5255C32.1493 56.7301 32.9165 56.6002 33.8064 56.6091C34.7497 56.618 35.751 56.5468 35.9758 57.5077C36.145 58.2319 35.4219 58.618 33.9988 58.5984V58.5966Z" fill="white"/>
<path d="M56.0291 58.5956C55.7199 58.5956 55.4038 58.6293 55.1039 58.5885C54.3484 58.4873 53.9533 58.1218 54.0044 57.5326C54.0625 56.8335 54.7483 56.5886 56.3825 56.6099C57.2681 56.6223 57.9143 56.8459 57.9934 57.5823C58.0724 58.2974 57.4448 58.6115 56.0291 58.5956Z" fill="white"/>
<path d="M14.4891 58.567C14.0122 58.567 13.469 58.6778 13.076 58.538C12.6211 58.3743 11.9764 57.9735 12.0007 57.7058C12.0316 57.346 12.5659 56.7798 12.9854 56.7184C13.9769 56.5718 15.0522 56.5718 16.0414 56.7201C16.4565 56.7832 16.9754 57.363 16.9997 57.7245C17.0173 57.9906 16.3593 58.3794 15.9023 58.538C15.5048 58.6761 14.9661 58.567 14.4891 58.567Z" fill="white"/>
<path d="M75.5586 56.6209C75.9853 56.6209 76.4184 56.5891 76.8409 56.628C77.5721 56.6951 78.0267 57.0345 77.9988 57.6709C77.9731 58.2666 77.5378 58.5795 76.828 58.5954C75.9381 58.6131 75.0461 58.6131 74.1562 58.5954C73.4422 58.5795 73.0176 58.256 73.0005 57.6621C72.9833 57.0275 73.4358 56.6881 74.1712 56.628C74.6301 56.5909 75.0976 56.6209 75.5607 56.6209H75.5586Z" fill="white"/>
<path d="M13.5501 15.6234C13.976 15.6234 14.4084 15.5899 14.8301 15.6304C15.5536 15.7008 16.0267 16.0244 15.9988 16.6612C15.9731 17.2487 15.5322 17.5706 14.8323 17.5899C13.9439 17.6163 13.0535 17.6128 12.1652 17.5917C11.4567 17.5759 11.0221 17.254 11.0007 16.6647C10.9793 16.035 11.431 15.692 12.163 15.6286C12.6211 15.5882 13.0877 15.6216 13.5501 15.6216V15.6234Z" fill="white"/>
<path d="M45.0036 75.6032C43.2322 75.6032 41.4631 75.5926 39.6917 75.6067C38.7643 75.6138 38.0359 75.3863 38.0012 74.6156C37.9665 73.8203 38.6926 73.6052 39.6292 73.6087C43.2091 73.621 46.7866 73.621 50.3664 73.6087C51.3007 73.6052 52.0292 73.8168 51.9991 74.6139C51.969 75.3863 51.2406 75.6155 50.3132 75.6085C48.5441 75.5944 46.7727 75.605 45.0013 75.605L45.0036 75.6032Z" fill="white"/>
</svg>
