<svg width="83" height="84" viewBox="0 0 83 84" fill="none" xmlns="http://www.w3.org/2000/svg">
<path d="M53.3116 81.1493V70.9239C51.9843 70.9239 50.6678 70.9239 49.3513 70.9239C47.9375 70.9239 47.3517 70.5563 47.3712 69.689C47.3885 68.8326 47.9527 68.5017 49.401 68.4995C50.6591 68.4995 51.9173 68.4995 53.2748 68.4995V66.3497H52.1118C47.5355 66.3497 42.9591 66.3497 38.3828 66.3497C36.7312 66.3497 36.2924 65.848 36.4459 64.1654C36.8998 59.2322 40.0041 56.0487 45.3802 55.149C46.8978 54.8959 48.4607 54.8332 50.002 54.8246C56.165 54.79 62.3259 54.8094 68.489 54.8094H69.7644V51.5026H26.8327V52.8305C26.8327 62.3465 26.8327 71.8647 26.8327 81.3807C26.8327 81.7051 26.8327 82.0295 26.8263 82.3539C26.8111 83.1087 26.3982 83.4721 25.6697 83.4872C24.898 83.5023 24.4246 83.1455 24.4159 82.3366C24.4008 80.8941 24.4095 79.4537 24.4073 78.0112C24.4073 77.6262 24.4073 77.2391 24.4073 76.7957H2.41619C2.41619 78.5821 2.41402 80.3685 2.41619 82.1528C2.41619 82.886 2.21082 83.431 1.35695 83.4894C0.628449 83.5369 0.176651 83.2125 0.0404628 82.5032C-0.0200651 82.1896 0.00587542 81.8565 0.00371371 81.5321C0.00371371 68.7352 0.00371371 55.9384 0.00371371 43.1415C0.00371371 41.2816 0.241502 41.0502 2.12868 41.0502C3.20953 41.0502 4.29039 41.048 5.37125 41.0437C5.44258 41.0437 5.51392 41.022 5.6674 40.9961C5.16156 40.1245 4.58006 39.3178 4.19744 38.4246C3.12523 35.9245 2.97607 33.2622 3.01714 30.5847C3.03011 29.6872 3.57919 29.3217 4.4309 29.3217C6.26836 29.3217 8.10582 29.3217 9.94543 29.3174C10.3345 29.3174 10.7258 29.3174 11.1906 29.3174V27.3493C9.68819 26.9773 8.18148 26.841 6.89958 26.2333C4.70112 25.193 3.25061 23.4391 3.20521 20.8373C3.18143 19.5115 3.59432 18.9471 4.9108 18.5881C6.79582 18.0755 8.6203 18.2355 10.3345 19.2369C10.5788 19.3796 10.8144 19.5332 11.1668 19.7516C11.3116 18.64 11.4284 17.7792 10.5161 16.886C7.73616 14.1588 8.06258 9.34889 11.063 6.87905C11.9234 6.16968 12.734 6.08317 13.7025 6.72982C16.9343 8.88174 17.4768 13.9879 14.6126 16.8795C13.7609 17.7381 13.6441 18.5405 13.8387 19.6759C14.405 19.3904 14.9239 19.105 15.4621 18.8649C16.971 18.1923 18.5382 18.1058 20.1033 18.5816C21.5863 19.0314 21.971 19.717 21.7808 21.2655C21.3787 24.5334 18.3329 27.107 14.9044 27.0746C14.5845 27.0724 14.2645 27.0746 13.8452 27.0746V29.3195C15.4859 29.3195 17.1288 29.3195 18.7717 29.3195C21.5409 29.3195 21.5776 29.3757 21.4479 32.2003C21.3377 34.6247 21.1042 37.0188 19.885 39.188C19.5543 39.7763 19.15 40.3213 18.722 40.9723H46.0309V36.6425C45.6288 36.6425 45.2138 36.6425 44.8009 36.6425C40.0084 36.6425 35.2159 36.6468 30.4212 36.6425C27.7731 36.6404 26.5863 35.4508 26.5863 32.8188C26.5863 26.9794 26.5863 21.1401 26.5863 15.2986C26.5863 15.119 26.5863 14.9374 26.5863 14.7579C26.582 13.9079 26.93 13.3456 27.8466 13.3672C28.7221 13.3867 28.9815 13.949 28.9793 14.7514C28.9664 18.5362 28.975 22.3209 28.975 26.1057C28.975 26.495 28.975 26.8864 28.975 27.3493H62.0103C62.3908 25.7921 62.6956 24.2047 63.1733 22.6691C64.1439 19.5505 65.7566 16.8168 68.3268 14.7254C68.69 14.4313 69.0488 14.0831 69.4725 13.9231C70.1427 13.6722 70.9295 13.298 71.5478 13.4516C72.4557 13.6765 72.2201 14.6735 72.2222 15.4089C72.2309 18.9774 72.2266 22.5459 72.2266 26.1144C72.2266 26.5036 72.2266 26.8908 72.2266 27.3514H75.8604C75.8777 26.9924 75.908 26.6118 75.908 26.2333C75.9101 19.0228 75.9101 11.8144 75.908 4.60386C75.908 3.10509 75.8064 3.00344 74.3104 3.00344C59.7513 3.00344 45.1922 3.00344 30.633 3.00344C29.1393 3.00344 28.9772 3.17214 28.9728 4.68821C28.9728 5.80634 28.9599 6.92231 28.975 8.04044C28.9858 8.81469 28.6724 9.30347 27.866 9.33591C27.0208 9.37052 26.5971 8.90337 26.5885 8.08153C26.5733 6.60439 26.5366 5.12292 26.5993 3.64794C26.6706 1.96101 27.9914 0.70879 29.684 0.615793C29.9348 0.602816 30.1877 0.611467 30.4406 0.611467C45.1446 0.611467 59.8464 0.611467 74.5504 0.611467C77.1488 0.611467 78.3183 1.75988 78.3204 4.35731C78.3269 13.8733 78.3269 23.3915 78.3204 32.9075C78.3204 35.4855 77.1423 36.6295 74.5331 36.6404C73.8154 36.6425 73.0999 36.6404 72.2222 36.6404V41.048C72.6892 41.048 73.0718 41.048 73.4522 41.048C76.1198 41.048 78.7852 41.0415 81.4528 41.0523C82.5552 41.0566 82.9876 41.4459 82.9897 42.5295C83.0049 49.1993 83.0005 55.867 82.9941 62.5368C82.9941 63.35 82.7087 63.9707 81.7684 63.9794C80.8042 63.9902 80.5816 63.3695 80.5837 62.5433C80.5924 59.2625 80.5859 55.9816 80.5859 52.7029C80.5859 52.318 80.5859 51.933 80.5859 51.494H72.2525C72.2525 51.9871 72.2633 52.4434 72.2525 52.8976C72.1877 55.1273 72.2719 57.3744 72.0125 59.5826C71.4332 64.546 68.5538 66.1659 64.172 66.3303C61.7617 66.4211 59.3427 66.3497 56.9303 66.3519C56.5779 66.3519 56.2277 66.3519 55.8256 66.3519V81.1536C56.2753 81.1536 56.6925 81.1536 57.1097 81.1536C61.6493 81.1536 66.1911 81.1493 70.7307 81.1579C71.4981 81.1579 72.3152 81.1428 72.4319 82.2047C72.5097 82.9119 72.2417 83.405 71.4959 83.5391C71.2495 83.5845 70.9965 83.6061 70.7458 83.6061C59.9372 83.6105 49.1265 83.6083 38.3179 83.6061C38.1385 83.6061 37.9569 83.5997 37.7797 83.578C37.0231 83.485 36.5821 83.0741 36.621 82.2912C36.6577 81.5516 37.1355 81.1882 37.8337 81.1731C39.3102 81.1428 40.7888 81.1536 42.2652 81.1515C45.5445 81.1515 48.8239 81.1515 52.1032 81.1515H53.3159L53.3116 81.1493ZM68.0782 48.9939C67.7496 48.6132 67.5573 48.4229 67.3973 48.2066C66.4613 46.9349 65.4561 45.7065 64.6325 44.3656C64.2261 43.7017 63.878 43.414 63.0739 43.4162C43.2596 43.4421 23.4432 43.4356 3.62891 43.4378C3.25061 43.4378 2.87015 43.4702 2.41402 43.4897C2.41402 44.9322 2.41402 46.2602 2.41402 47.5902C2.41402 48.5274 2.88023 48.996 3.81265 48.996C24.8159 48.996 45.8212 48.996 66.8244 48.996H68.0739L68.0782 48.9939ZM24.323 74.2156V64.107H2.50698V74.2156H24.323ZM2.47239 61.5204H24.336V51.5134H2.47239V61.5204ZM38.8843 63.8172C39.3469 63.841 39.6647 63.8713 39.9824 63.8713C47.8727 63.8734 55.7629 63.8756 63.6532 63.8691C64.2996 63.8691 64.9546 63.8496 65.5944 63.7545C66.9585 63.5533 68.2987 63.0927 68.8478 61.7496C69.4034 60.3893 69.639 58.8992 70.0411 57.3658C69.5136 57.3117 69.3061 57.2706 69.0986 57.2706C62.0362 57.2728 54.9739 57.236 47.9138 57.3247C46.4697 57.3442 44.9782 57.6902 43.599 58.1573C40.9898 59.044 39.362 60.891 38.8843 63.8172ZM61.8352 29.9078H29.0312C29.0074 30.1089 28.9836 30.2149 28.9836 30.323C28.9793 31.08 28.9772 31.8369 28.9772 32.5939C28.9815 34.0775 29.068 34.164 30.5963 34.164C40.6504 34.164 50.7067 34.164 60.7608 34.164C61.111 34.164 61.4591 34.1316 61.8352 34.1143V29.9078ZM69.7579 16.8406C65.8257 19.5288 63.7397 26.8735 64.4595 35.2065C64.8746 40.0229 67.1119 45.2848 69.7579 46.7857V16.8406ZM5.3626 31.7915C5.60471 33.353 5.75171 34.8475 6.07813 36.3008C6.64882 38.829 8.20525 40.3646 10.8361 40.7906C13.6874 41.2513 16.3138 40.3775 17.533 38.3662C18.7436 36.37 18.9663 34.1338 19.0225 31.7937H5.3626V31.7915ZM72.2828 48.9852C74.9157 48.9852 77.4947 48.996 80.0714 48.9614C80.2443 48.9592 80.5556 48.6219 80.56 48.4359C80.5989 46.7944 80.5816 45.1507 80.5816 43.5178H72.2828V48.9852ZM56.3488 40.9874V36.7117H48.6725V40.9874H56.3488ZM58.8672 36.6447V40.9788H63.0782C62.795 39.653 62.5464 38.39 62.2394 37.1443C62.1897 36.9453 61.8871 36.6793 61.6882 36.6685C60.7673 36.6187 59.8421 36.6468 58.8672 36.6468V36.6447ZM72.2871 34.1532C73.2663 34.1532 74.198 34.2181 75.1103 34.1143C75.4021 34.0818 75.8474 33.619 75.869 33.3249C75.9577 32.1916 75.9058 31.0497 75.9058 29.897H72.2266C72.2266 31.1276 72.2244 32.2738 72.2287 33.42C72.2287 33.6277 72.259 33.8353 72.2849 34.1511L72.2871 34.1532ZM12.5676 9.03746C10.4707 10.1707 10.6242 14.5546 12.6497 15.4132C14.6839 13.8149 14.3424 9.91985 12.5676 9.03746ZM13.8841 24.4642C16.5841 25.0741 19.243 23.292 19.1976 20.9584C16.8845 20.102 14.0743 21.9187 13.8841 24.4642ZM11.1495 24.3842C10.8534 21.8105 7.90478 20.0046 5.69118 21.0428C6.26836 23.6726 8.88619 25.2774 11.1495 24.3842Z" fill="white"/>
<path d="M80.0036 76.1917C80.0036 74.1793 80.0072 72.1669 80.0018 70.1545C80 69.318 80.1378 68.5896 80.9897 68.609C81.8112 68.6285 81.9973 69.3504 81.9973 70.1783C82.0009 74.1663 82.0009 78.1565 81.9973 82.1445C81.9973 83.007 81.7611 83.6338 80.9253 83.6079C80.1003 83.5819 79.9982 82.9075 80 82.1186C80.0072 80.1429 80.0018 78.1651 80.0018 76.1895L80.0036 76.1917Z" fill="white"/>
<path d="M12.953 70.6086C11.6999 70.6086 10.4486 70.6086 9.19544 70.6086C8.51155 70.6086 8.01743 70.2456 8.00052 69.1957C7.98173 68.0987 8.4721 67.6286 9.19732 67.6234C11.7337 67.6051 14.2701 67.6025 16.8064 67.6234C17.526 67.6286 18.0183 68.0856 17.9995 69.1983C17.9807 70.2613 17.4847 70.606 16.8046 70.606C15.5213 70.6113 14.2362 70.606 12.953 70.606V70.6086Z" fill="white"/>
<path d="M13.0245 58.603C11.7412 58.603 10.4598 58.5895 9.17651 58.6084C8.46627 58.6193 8.01158 58.2023 8.0003 57.1383C7.98715 56.0852 8.40427 55.6059 9.12953 55.6087C11.6943 55.6195 14.2609 55.6195 16.8256 55.6087C17.5283 55.6059 17.9924 55.9823 17.9999 57.0706C18.0074 58.2294 17.5189 58.6193 16.7786 58.6084C15.5273 58.5895 14.2759 58.603 13.0245 58.603Z" fill="white"/>
</svg>
