<svg width="83" height="83" viewBox="0 0 83 83" fill="none" xmlns="http://www.w3.org/2000/svg">
<path d="M53.3116 80.5406V70.3153C51.9843 70.3153 50.6678 70.3153 49.3513 70.3153C47.9375 70.3153 47.3517 69.9476 47.3712 69.0804C47.3885 68.2239 47.9527 67.893 49.401 67.8909C50.6591 67.8909 51.9173 67.8909 53.2748 67.8909V65.7411H52.1118C47.5355 65.7411 42.9591 65.7411 38.3828 65.7411C36.7312 65.7411 36.2924 65.2393 36.4459 63.5567C36.8998 58.6236 40.0041 55.44 45.3802 54.5403C46.8978 54.2873 48.4607 54.2246 50.002 54.2159C56.165 54.1813 62.3259 54.2008 68.489 54.2008H69.7644V50.894H26.8327V52.2219C26.8327 61.7379 26.8327 71.2561 26.8327 80.7721C26.8327 81.0965 26.8327 81.4209 26.8263 81.7453C26.8111 82.5001 26.3982 82.8634 25.6697 82.8786C24.898 82.8937 24.4246 82.5368 24.4159 81.728C24.4008 80.2854 24.4095 78.8451 24.4073 77.4025C24.4073 77.0176 24.4073 76.6304 24.4073 76.1871H2.41619C2.41619 77.9735 2.41402 79.7599 2.41619 81.5442C2.41619 82.2773 2.21082 82.8223 1.35695 82.8807C0.628449 82.9283 0.176651 82.6039 0.0404628 81.8945C-0.0200651 81.5809 0.00587542 81.2479 0.00371371 80.9235C0.00371371 68.1266 0.00371371 55.3297 0.00371371 42.5329C0.00371371 40.6729 0.241502 40.4415 2.12868 40.4415C3.20953 40.4415 4.29039 40.4393 5.37125 40.435C5.44258 40.435 5.51392 40.4134 5.6674 40.3874C5.16156 39.5159 4.58006 38.7092 4.19744 37.816C3.12523 35.3158 2.97607 32.6535 3.01714 29.9761C3.03011 29.0785 3.57919 28.713 4.4309 28.713C6.26836 28.713 8.10582 28.713 9.94543 28.7087C10.3345 28.7087 10.7258 28.7087 11.1906 28.7087V26.7406C9.68819 26.3686 8.18148 26.2324 6.89958 25.6247C4.70112 24.5844 3.25061 22.8304 3.20521 20.2287C3.18143 18.9029 3.59432 18.3384 4.9108 17.9794C6.79582 17.4669 8.6203 17.6269 10.3345 18.6282C10.5788 18.771 10.8144 18.9245 11.1668 19.143C11.3116 18.0313 11.4284 17.1706 10.5161 16.2774C7.73616 13.5502 8.06258 8.74025 11.063 6.27041C11.9234 5.56104 12.734 5.47453 13.7025 6.12118C16.9343 8.2731 17.4768 13.3793 14.6126 16.2709C13.7609 17.1295 13.6441 17.9318 13.8387 19.0673C14.405 18.7818 14.9239 18.4963 15.4621 18.2562C16.971 17.5836 18.5382 17.4971 20.1033 17.9729C21.5863 18.4228 21.971 19.1084 21.7808 20.6569C21.3787 23.9248 18.3329 26.4984 14.9044 26.466C14.5845 26.4638 14.2645 26.466 13.8452 26.466V28.7109C15.4859 28.7109 17.1288 28.7109 18.7717 28.7109C21.5409 28.7109 21.5776 28.7671 21.4479 31.5916C21.3377 34.016 21.1042 36.4102 19.885 38.5794C19.5543 39.1677 19.15 39.7127 18.722 40.3637H46.0309V36.0339C45.6288 36.0339 45.2138 36.0339 44.8009 36.0339C40.0084 36.0339 35.2159 36.0382 30.4212 36.0339C27.7731 36.0317 26.5863 34.8422 26.5863 32.2102C26.5863 26.3708 26.5863 20.5314 26.5863 14.6899C26.5863 14.5104 26.5863 14.3287 26.5863 14.1492C26.582 13.2993 26.93 12.737 27.8466 12.7586C28.7221 12.7781 28.9815 13.3404 28.9793 14.1427C28.9664 17.9275 28.975 21.7123 28.975 25.4971C28.975 25.8864 28.975 26.2778 28.975 26.7406H62.0103C62.3908 25.1835 62.6956 23.596 63.1733 22.0605C64.1439 18.9418 65.7566 16.2081 68.3268 14.1168C68.69 13.8227 69.0488 13.4745 69.4725 13.3144C70.1427 13.0635 70.9295 12.6894 71.5478 12.8429C72.4557 13.0679 72.2201 14.0649 72.2222 14.8002C72.2309 18.3687 72.2266 21.9372 72.2266 25.5057C72.2266 25.895 72.2266 26.2821 72.2266 26.7428H75.8604C75.8777 26.3838 75.908 26.0031 75.908 25.6247C75.9101 18.4141 75.9101 11.2058 75.908 3.99522C75.908 2.49645 75.8064 2.3948 74.3104 2.3948C59.7513 2.3948 45.1922 2.3948 30.633 2.3948C29.1393 2.3948 28.9772 2.56349 28.9728 4.07957C28.9728 5.1977 28.9599 6.31367 28.975 7.4318C28.9858 8.20605 28.6724 8.69483 27.866 8.72727C27.0208 8.76187 26.5971 8.29472 26.5885 7.47289C26.5733 5.99574 26.5366 4.51428 26.5993 3.03929C26.6706 1.35237 27.9914 0.100148 29.684 0.00715024C29.9348 -0.00582612 30.1877 0.00282479 30.4406 0.00282479C45.1446 0.00282479 59.8464 0.00282479 74.5504 0.00282479C77.1488 0.00282479 78.3183 1.15123 78.3204 3.74867C78.3269 13.2647 78.3269 22.7828 78.3204 32.2988C78.3204 34.8768 77.1423 36.0209 74.5331 36.0317C73.8154 36.0339 73.0999 36.0317 72.2222 36.0317V40.4393C72.6892 40.4393 73.0718 40.4393 73.4522 40.4393C76.1198 40.4393 78.7852 40.4329 81.4528 40.4437C82.5552 40.448 82.9876 40.8373 82.9897 41.9208C83.0049 48.5907 83.0005 55.2584 82.9941 61.9282C82.9941 62.7414 82.7087 63.3621 81.7684 63.3708C80.8042 63.3816 80.5816 62.7609 80.5837 61.9347C80.5924 58.6538 80.5859 55.373 80.5859 52.0943C80.5859 51.7093 80.5859 51.3244 80.5859 50.8853H72.2525C72.2525 51.3784 72.2633 51.8348 72.2525 52.2889C72.1877 54.5187 72.2719 56.7658 72.0125 58.9739C71.4332 63.9374 68.5538 65.5573 64.172 65.7216C61.7617 65.8125 59.3427 65.7411 56.9303 65.7433C56.5779 65.7433 56.2277 65.7433 55.8256 65.7433V80.545C56.2753 80.545 56.6925 80.545 57.1097 80.545C61.6493 80.545 66.1911 80.5406 70.7307 80.5493C71.4981 80.5493 72.3152 80.5342 72.4319 81.5961C72.5097 82.3033 72.2417 82.7964 71.4959 82.9305C71.2495 82.9759 70.9965 82.9975 70.7458 82.9975C59.9372 83.0018 49.1265 82.9997 38.3179 82.9975C38.1385 82.9975 37.9569 82.991 37.7797 82.9694C37.0231 82.8764 36.5821 82.4655 36.621 81.6826C36.6577 80.9429 37.1355 80.5796 37.8337 80.5644C39.3102 80.5342 40.7888 80.545 42.2652 80.5428C45.5445 80.5428 48.8239 80.5428 52.1032 80.5428H53.3159L53.3116 80.5406ZM68.0782 48.3852C67.7496 48.0046 67.5573 47.8143 67.3973 47.598C66.4613 46.3263 65.4561 45.0979 64.6325 43.757C64.2261 43.093 63.878 42.8054 63.0739 42.8075C43.2596 42.8335 23.4432 42.827 3.62891 42.8292C3.25061 42.8292 2.87015 42.8616 2.41402 42.8811C2.41402 44.3236 2.41402 45.6515 2.41402 46.9816C2.41402 47.9188 2.88023 48.3874 3.81265 48.3874C24.8159 48.3874 45.8212 48.3874 66.8244 48.3874H68.0739L68.0782 48.3852ZM24.323 73.6069V63.4984H2.50698V73.6069H24.323ZM2.47239 60.9117H24.336V50.9048H2.47239V60.9117ZM38.8843 63.2085C39.3469 63.2323 39.6647 63.2626 39.9824 63.2626C47.8727 63.2648 55.7629 63.2669 63.6532 63.2604C64.2996 63.2604 64.9546 63.241 65.5944 63.1458C66.9585 62.9447 68.2987 62.484 68.8478 61.141C69.4034 59.7806 69.639 58.2905 70.0411 56.7571C69.5136 56.7031 69.3061 56.662 69.0986 56.662C62.0362 56.6641 54.9739 56.6274 47.9138 56.716C46.4697 56.7355 44.9782 57.0815 43.599 57.5487C40.9898 58.4354 39.362 60.2824 38.8843 63.2085ZM61.8352 29.2991H29.0312C29.0074 29.5003 28.9836 29.6062 28.9836 29.7144C28.9793 30.4713 28.9772 31.2283 28.9772 31.9852C28.9815 33.4689 29.068 33.5554 30.5963 33.5554C40.6504 33.5554 50.7067 33.5554 60.7608 33.5554C61.111 33.5554 61.4591 33.5229 61.8352 33.5056V29.2991ZM69.7579 16.2319C65.8257 18.9202 63.7397 26.2648 64.4595 34.5978C64.8746 39.4142 67.1119 44.6761 69.7579 46.1771V16.2319ZM5.3626 31.1829C5.60471 32.7444 5.75171 34.2388 6.07813 35.6922C6.64882 38.2204 8.20525 39.7559 10.8361 40.182C13.6874 40.6426 16.3138 39.7689 17.533 37.7576C18.7436 35.7614 18.9663 33.5251 19.0225 31.185H5.3626V31.1829ZM72.2828 48.3766C74.9157 48.3766 77.4947 48.3874 80.0714 48.3528C80.2443 48.3506 80.5556 48.0132 80.56 47.8272C80.5989 46.1857 80.5816 44.542 80.5816 42.9092H72.2828V48.3766ZM56.3488 40.3788V36.1031H48.6725V40.3788H56.3488ZM58.8672 36.036V40.3701H63.0782C62.795 39.0444 62.5464 37.7814 62.2394 36.5356C62.1897 36.3367 61.8871 36.0706 61.6882 36.0598C60.7673 36.0101 59.8421 36.0382 58.8672 36.0382V36.036ZM72.2871 33.5446C73.2663 33.5446 74.198 33.6095 75.1103 33.5056C75.4021 33.4732 75.8474 33.0104 75.869 32.7162C75.9577 31.583 75.9058 30.4411 75.9058 29.2883H72.2266C72.2266 30.5189 72.2244 31.6652 72.2287 32.8114C72.2287 33.019 72.259 33.2267 72.2849 33.5424L72.2871 33.5446ZM12.5676 8.42881C10.4707 9.56208 10.6242 13.9459 12.6497 14.8045C14.6839 13.2063 14.3424 9.31121 12.5676 8.42881ZM13.8841 23.8556C16.5841 24.4654 19.243 22.6834 19.1976 20.3498C16.8845 19.4933 14.0743 21.31 13.8841 23.8556ZM11.1495 23.7755C10.8534 21.2019 7.90478 19.396 5.69118 20.4341C6.26836 23.064 8.88619 24.6687 11.1495 23.7755Z" fill="#000D28"/>
<path d="M80.0036 75.583C80.0036 73.5706 80.0072 71.5583 80.0018 69.5459C80 68.7094 80.1378 67.9809 80.9897 68.0004C81.8112 68.0198 81.9973 68.7418 81.9973 69.5696C82.0009 73.5577 82.0009 77.5479 81.9973 81.5359C81.9973 82.3983 81.7611 83.0252 80.9253 82.9992C80.1003 82.9733 79.9982 82.2989 80 81.5099C80.0072 79.5343 80.0018 77.5565 80.0018 75.5809L80.0036 75.583Z" fill="#000D28"/>
<path d="M12.953 70C11.6999 70 10.4486 70 9.19544 70C8.51155 70 8.01743 69.637 8.00052 68.587C7.98173 67.4901 8.4721 67.0199 9.19732 67.0147C11.7337 66.9964 14.2701 66.9938 16.8064 67.0147C17.526 67.0199 18.0183 67.477 17.9995 68.5896C17.9807 69.6526 17.4847 69.9974 16.8046 69.9974C15.5213 70.0026 14.2362 69.9974 12.953 69.9974V70Z" fill="#000D28"/>
<path d="M13.0245 57.9944C11.7412 57.9944 10.4598 57.9808 9.17651 57.9998C8.46627 58.0106 8.01158 57.5937 8.0003 56.5297C7.98715 55.4765 8.40427 54.9973 9.12953 55C11.6943 55.0108 14.2609 55.0108 16.8256 55C17.5283 54.9973 17.9924 55.3736 17.9999 56.462C18.0074 57.6208 17.5189 58.0106 16.7786 57.9998C15.5273 57.9808 14.2759 57.9944 13.0245 57.9944Z" fill="#000D28"/>
</svg>
